<?xml version="1.0" standalone="no"?>
<!DOCTYPE svg PUBLIC "-//W3C//DTD SVG 20010904//EN"
 "http://www.w3.org/TR/2001/REC-SVG-20010904/DTD/svg10.dtd">
<svg version="1.0" xmlns="http://www.w3.org/2000/svg"
 width="32.000000pt" height="32.000000pt" viewBox="0 0 32.000000 32.000000"
 preserveAspectRatio="xMidYMid meet">

<g transform="translate(0.000000,32.000000) scale(0.100000,-0.100000)"
fill="#000000" stroke="none">
<path d="M118 299 c-25 -14 -22 -37 5 -42 l22 -4 -22 -2 c-15 -1 -23 -7 -22
-18 0 -11 3 -13 6 -5 3 7 24 12 53 12 29 0 50 -5 53 -12 3 -8 6 -7 6 4 1 10
-8 18 -21 21 l-23 4 23 2 c12 0 22 8 22 16 0 30 -66 46 -102 24z"/>
<path d="M120 161 c0 -13 -11 -23 -34 -31 -39 -13 -46 -25 -46 -86 0 -37 3
-44 19 -44 11 0 22 6 24 13 4 9 6 9 6 0 1 -18 137 -18 144 0 4 9 6 9 6 0 1 -7
10 -13 21 -13 17 0 20 7 20 44 0 61 -7 73 -46 86 -23 8 -34 18 -34 31 0 17 -3
18 -20 7 -16 -10 -24 -10 -40 0 -17 11 -20 10 -20 -7z m70 -18 c0 -8 -13 -13
-30 -13 -17 0 -30 5 -30 13 0 7 13 12 30 12 17 0 30 -5 30 -12z m-12 -32 c15
12 16 12 6 -1 -7 -8 -13 -23 -15 -32 -3 -14 -8 -11 -22 14 -14 24 -15 28 -2
18 12 -10 18 -10 33 1z m68 -28 c-4 -23 -28 -23 -32 0 -1 11 4 17 16 17 12 0
17 -6 16 -17z"/>
</g>
</svg>
